<?xml version="1.0" encoding="utf-8"?>
<!-- Generator: Adobe Illustrator 26.1.0, SVG Export Plug-In . SVG Version: 6.00 Build 0)  -->
<svg version="1.1" id="Layer_1" xmlns="http://www.w3.org/2000/svg" xmlns:xlink="http://www.w3.org/1999/xlink" x="0px" y="0px"
	 viewBox="0 0 486.8 2190.5" style="enable-background:new 0 0 486.8 2190.5;" xml:space="preserve">
<style type="text/css">
	.st0{fill:#FF0000;}
</style>
<path class="st0" d="M438.1,0l-32.4,36.5C372.7,73,308.8,146,251.5,219.1c-56.7,73-105.4,146-81.1,219.1s121.7,146,138,219.1
	c15.7,73-48.2,146-48.7,219.1c0.5,73,64.3,146,97.4,219.1c32.4,73,32.4,146,16.1,219.1c-15.7,73-49.1,146-56.7,219.1
	c-7.6,73,7.6,146-16.3,219.1c-24.8,73-88.7,146-105.4,219.1c-16.7,73,16.7,146,32.4,182.5l16.3,36.5H0V2154c0-36.5,0-109.5,0-182.5
	c0-73,0-146,0-219.1c0-73,0-146,0-219.1c0-73,0-146,0-219.1c0-73,0-146,0-219.1c0-73,0-146,0-219.1s0-146,0-219.1s0-146,0-219.1
	s0-146,0-219.1S0,73,0,36.5V0H438.1z"/>
</svg>
