<?xml version="1.0" encoding="utf-8"?>
<!-- Generator: Adobe Illustrator 26.1.0, SVG Export Plug-In . SVG Version: 6.00 Build 0)  -->
<svg version="1.1" id="Layer_1" xmlns="http://www.w3.org/2000/svg" xmlns:xlink="http://www.w3.org/1999/xlink" x="0px" y="0px"
	 viewBox="0 0 2190.5 486.8" style="enable-background:new 0 0 2190.5 486.8;" xml:space="preserve">
<style type="text/css">
	.st0{fill:#FF0000;}
</style>
<path class="st0" d="M2190.7,438.1l-36.5-32.4c-36.5-33-109.5-96.9-182.6-154.2c-73-56.7-146-105.4-219.1-81.1
	c-73.1,24.3-146,121.7-219.1,138c-73,15.7-146-48.2-219.1-48.7c-73,0.5-146,64.3-219.1,97.4c-73,32.4-146,32.4-219.1,16.1
	c-73-15.7-146-49.1-219.1-56.7c-73-7.6-146,7.6-219.1-16.3c-73-24.8-146-88.7-219.1-105.4c-73-16.7-146,16.7-182.5,32.4l-36.5,16.3
	V0h36.9c36.5,0,109.5,0,182.5,0s146,0,219.1,0c73,0,146,0,219.1,0c73,0,146,0,219.1,0c73,0,146,0,219.1,0c73,0,146,0,219.1,0
	s146,0,219.1,0s146,0,219.1,0s146,0,219.1,0c73.1,0,145.7,0,182.2,0h36.5V438.1z"/>
</svg>
